<?xml version="1.0" encoding="UTF-8" standalone="no"?>
<!DOCTYPE svg PUBLIC "-//W3C//DTD SVG 1.1//EN"
 "http://www.w3.org/Graphics/SVG/1.1/DTD/svg11.dtd">
<!-- Generated by graphviz version 14.0.5 (0)
 -->
<!-- Title: snakemake_dag Pages: 1 -->
<svg width="306pt" height="621pt"
 viewBox="0.00 0.00 306.00 621.00" xmlns="http://www.w3.org/2000/svg" xmlns:xlink="http://www.w3.org/1999/xlink">
<g id="graph0" class="graph" transform="scale(1 1) rotate(0) translate(4 617)">
<title>snakemake_dag</title>
<polygon fill="white" stroke="none" points="-4,4 -4,-617 301.75,-617 301.75,4 -4,4"/>
<!-- 0 -->
<g id="node1" class="node">
<title>0</title>
<path fill="none" stroke="#9fd856" stroke-width="2" d="M154.5,-36C154.5,-36 124.5,-36 124.5,-36 118.5,-36 112.5,-30 112.5,-24 112.5,-24 112.5,-12 112.5,-12 112.5,-6 118.5,0 124.5,0 124.5,0 154.5,0 154.5,0 160.5,0 166.5,-6 166.5,-12 166.5,-12 166.5,-24 166.5,-24 166.5,-30 160.5,-36 154.5,-36"/>
<text xml:space="preserve" text-anchor="middle" x="139.5" y="-15.62" font-family="sans" font-size="10.00">all</text>
</g>
<!-- 1 -->
<g id="node2" class="node">
<title>1</title>
<path fill="none" stroke="#5682d8" stroke-width="2" d="M168.5,-108C168.5,-108 110.5,-108 110.5,-108 104.5,-108 98.5,-102 98.5,-96 98.5,-96 98.5,-84 98.5,-84 98.5,-78 104.5,-72 110.5,-72 110.5,-72 168.5,-72 168.5,-72 174.5,-72 180.5,-78 180.5,-84 180.5,-84 180.5,-96 180.5,-96 180.5,-102 174.5,-108 168.5,-108"/>
<text xml:space="preserve" text-anchor="middle" x="139.5" y="-87.62" font-family="sans" font-size="10.00">plot_neb_path</text>
</g>
<!-- 1&#45;&gt;0 -->
<g id="edge1" class="edge">
<title>1&#45;&gt;0</title>
<path fill="none" stroke="grey" stroke-width="2" d="M139.5,-71.34C139.5,-64.75 139.5,-57.08 139.5,-49.67"/>
<polygon fill="grey" stroke="grey" stroke-width="2" points="143,-49.93 139.5,-39.93 136,-49.93 143,-49.93"/>
</g>
<!-- 2 -->
<g id="node3" class="node">
<title>2</title>
<path fill="none" stroke="#56d89a" stroke-width="2" d="M154.5,-180C154.5,-180 124.5,-180 124.5,-180 118.5,-180 112.5,-174 112.5,-168 112.5,-168 112.5,-156 112.5,-156 112.5,-150 118.5,-144 124.5,-144 124.5,-144 154.5,-144 154.5,-144 160.5,-144 166.5,-150 166.5,-156 166.5,-156 166.5,-168 166.5,-168 166.5,-174 160.5,-180 154.5,-180"/>
<text xml:space="preserve" text-anchor="middle" x="139.5" y="-159.62" font-family="sans" font-size="10.00">do_neb</text>
</g>
<!-- 2&#45;&gt;1 -->
<g id="edge2" class="edge">
<title>2&#45;&gt;1</title>
<path fill="none" stroke="grey" stroke-width="2" d="M139.5,-143.34C139.5,-136.75 139.5,-129.08 139.5,-121.67"/>
<polygon fill="grey" stroke="grey" stroke-width="2" points="143,-121.93 139.5,-111.93 136,-121.93 143,-121.93"/>
</g>
<!-- 3 -->
<g id="node4" class="node">
<title>3</title>
<path fill="none" stroke="#d85656" stroke-width="2" d="M239.12,-252C239.12,-252 133.88,-252 133.88,-252 127.88,-252 121.88,-246 121.88,-240 121.88,-240 121.88,-228 121.88,-228 121.88,-222 127.88,-216 133.88,-216 133.88,-216 239.12,-216 239.12,-216 245.12,-216 251.12,-222 251.12,-228 251.12,-228 251.12,-240 251.12,-240 251.12,-246 245.12,-252 239.12,-252"/>
<text xml:space="preserve" text-anchor="middle" x="186.5" y="-231.62" font-family="sans" font-size="10.00">__ase_idpp_collect_paths</text>
</g>
<!-- 3&#45;&gt;2 -->
<g id="edge3" class="edge">
<title>3&#45;&gt;2</title>
<path fill="none" stroke="grey" stroke-width="2" d="M174.64,-215.34C169.78,-208.1 164.03,-199.53 158.6,-191.45"/>
<polygon fill="grey" stroke="grey" stroke-width="2" points="161.69,-189.77 153.21,-183.41 155.88,-193.67 161.69,-189.77"/>
</g>
<!-- 4 -->
<g id="node5" class="node">
<title>4</title>
<path fill="none" stroke="#d88556" stroke-width="2" d="M243,-324C243,-324 92,-324 92,-324 86,-324 80,-318 80,-312 80,-312 80,-300 80,-300 80,-294 86,-288 92,-288 92,-288 243,-288 243,-288 249,-288 255,-294 255,-300 255,-300 255,-312 255,-312 255,-318 249,-324 243,-324"/>
<text xml:space="preserve" text-anchor="middle" x="167.5" y="-303.62" font-family="sans" font-size="10.00">__ase_idpp_generate_idpp_images</text>
</g>
<!-- 4&#45;&gt;2 -->
<g id="edge5" class="edge">
<title>4&#45;&gt;2</title>
<path fill="none" stroke="grey" stroke-width="2" d="M140.97,-287.01C129.97,-277.94 118.41,-265.91 112.5,-252 104.24,-232.56 111.47,-209.75 120.52,-192.09"/>
<polygon fill="grey" stroke="grey" stroke-width="2" points="123.54,-193.85 125.41,-183.42 117.45,-190.41 123.54,-193.85"/>
</g>
<!-- 4&#45;&gt;3 -->
<g id="edge7" class="edge">
<title>4&#45;&gt;3</title>
<path fill="none" stroke="grey" stroke-width="2" d="M172.29,-287.34C174.1,-280.67 176.22,-272.89 178.25,-265.39"/>
<polygon fill="grey" stroke="grey" stroke-width="2" points="181.61,-266.39 180.85,-255.82 174.85,-264.56 181.61,-266.39"/>
</g>
<!-- 5 -->
<g id="node6" class="node">
<title>5</title>
<path fill="none" stroke="#d8b456" stroke-width="2" d="M204.25,-396C204.25,-396 48.75,-396 48.75,-396 42.75,-396 36.75,-390 36.75,-384 36.75,-384 36.75,-372 36.75,-372 36.75,-366 42.75,-360 48.75,-360 48.75,-360 204.25,-360 204.25,-360 210.25,-360 216.25,-366 216.25,-372 216.25,-372 216.25,-384 216.25,-384 216.25,-390 210.25,-396 204.25,-396"/>
<text xml:space="preserve" text-anchor="middle" x="126.5" y="-375.62" font-family="sans" font-size="10.00">__ira_align_prepare_endpoints_post</text>
</g>
<!-- 5&#45;&gt;2 -->
<g id="edge4" class="edge">
<title>5&#45;&gt;2</title>
<path fill="none" stroke="grey" stroke-width="2" d="M99.49,-359.11C88.3,-350.06 76.53,-338.02 70.5,-324 64.17,-309.3 67,-303.61 70.5,-288 78.6,-251.88 100.73,-215.36 117.77,-191.2"/>
<polygon fill="grey" stroke="grey" stroke-width="2" points="120.57,-193.3 123.62,-183.15 114.91,-189.18 120.57,-193.3"/>
</g>
<!-- 5&#45;&gt;4 -->
<g id="edge8" class="edge">
<title>5&#45;&gt;4</title>
<path fill="none" stroke="grey" stroke-width="2" d="M136.85,-359.34C140.99,-352.26 145.87,-343.92 150.51,-336"/>
<polygon fill="grey" stroke="grey" stroke-width="2" points="153.45,-337.91 155.48,-327.51 147.41,-334.37 153.45,-337.91"/>
</g>
<!-- 6 -->
<g id="node7" class="node">
<title>6</title>
<path fill="none" stroke="#56d86b" stroke-width="2" d="M126.25,-468.5C126.25,-468.5 48.75,-468.5 48.75,-468.5 42.75,-468.5 36.75,-462.5 36.75,-456.5 36.75,-456.5 36.75,-444 36.75,-444 36.75,-438 42.75,-432 48.75,-432 48.75,-432 126.25,-432 126.25,-432 132.25,-432 138.25,-438 138.25,-444 138.25,-444 138.25,-456.5 138.25,-456.5 138.25,-462.5 132.25,-468.5 126.25,-468.5"/>
<text xml:space="preserve" text-anchor="middle" x="87.5" y="-455" font-family="sans" font-size="10.00">do_minimization</text>
<text xml:space="preserve" text-anchor="middle" x="87.5" y="-440.75" font-family="sans" font-size="10.00">endpoint: reactant</text>
</g>
<!-- 6&#45;&gt;5 -->
<g id="edge9" class="edge">
<title>6&#45;&gt;5</title>
<path fill="none" stroke="grey" stroke-width="2" d="M97.54,-431.16C101.44,-424.14 106,-415.92 110.34,-408.12"/>
<polygon fill="grey" stroke="grey" stroke-width="2" points="113.36,-409.88 115.16,-399.43 107.24,-406.48 113.36,-409.88"/>
</g>
<!-- 7 -->
<g id="node8" class="node">
<title>7</title>
<path fill="none" stroke="#ced856" stroke-width="2" d="M163,-540.5C163,-540.5 12,-540.5 12,-540.5 6,-540.5 0,-534.5 0,-528.5 0,-528.5 0,-516.5 0,-516.5 0,-510.5 6,-504.5 12,-504.5 12,-504.5 163,-504.5 163,-504.5 169,-504.5 175,-510.5 175,-516.5 175,-516.5 175,-528.5 175,-528.5 175,-534.5 169,-540.5 163,-540.5"/>
<text xml:space="preserve" text-anchor="middle" x="87.5" y="-520.12" font-family="sans" font-size="10.00">__ira_align_prepare_endpoints_pre</text>
</g>
<!-- 7&#45;&gt;6 -->
<g id="edge11" class="edge">
<title>7&#45;&gt;6</title>
<path fill="none" stroke="grey" stroke-width="2" d="M87.5,-503.77C87.5,-497.17 87.5,-489.46 87.5,-482.03"/>
<polygon fill="grey" stroke="grey" stroke-width="2" points="91,-482.24 87.5,-472.24 84,-482.24 91,-482.24"/>
</g>
<!-- 10 -->
<g id="node11" class="node">
<title>10</title>
<path fill="none" stroke="#56d86b" stroke-width="2" d="M243.12,-468.5C243.12,-468.5 167.88,-468.5 167.88,-468.5 161.88,-468.5 155.88,-462.5 155.88,-456.5 155.88,-456.5 155.88,-444 155.88,-444 155.88,-438 161.88,-432 167.88,-432 167.88,-432 243.12,-432 243.12,-432 249.12,-432 255.12,-438 255.12,-444 255.12,-444 255.12,-456.5 255.12,-456.5 255.12,-462.5 249.12,-468.5 243.12,-468.5"/>
<text xml:space="preserve" text-anchor="middle" x="205.5" y="-455" font-family="sans" font-size="10.00">do_minimization</text>
<text xml:space="preserve" text-anchor="middle" x="205.5" y="-440.75" font-family="sans" font-size="10.00">endpoint: product</text>
</g>
<!-- 7&#45;&gt;10 -->
<g id="edge14" class="edge">
<title>7&#45;&gt;10</title>
<path fill="none" stroke="grey" stroke-width="2" d="M117.58,-503.59C131.76,-495.15 148.89,-484.95 164.26,-475.8"/>
<polygon fill="grey" stroke="grey" stroke-width="2" points="165.66,-479.04 172.46,-470.92 162.08,-473.03 165.66,-479.04"/>
</g>
<!-- 8 -->
<g id="node9" class="node">
<title>8</title>
<path fill="none" stroke="#70d856" stroke-width="2" d="M285.75,-540.5C285.75,-540.5 205.25,-540.5 205.25,-540.5 199.25,-540.5 193.25,-534.5 193.25,-528.5 193.25,-528.5 193.25,-516.5 193.25,-516.5 193.25,-510.5 199.25,-504.5 205.25,-504.5 205.25,-504.5 285.75,-504.5 285.75,-504.5 291.75,-504.5 297.75,-510.5 297.75,-516.5 297.75,-516.5 297.75,-528.5 297.75,-528.5 297.75,-534.5 291.75,-540.5 285.75,-540.5"/>
<text xml:space="preserve" text-anchor="middle" x="245.5" y="-520.12" font-family="sans" font-size="10.00">convert_ckpt_to_pt</text>
</g>
<!-- 8&#45;&gt;2 -->
<g id="edge6" class="edge">
<title>8&#45;&gt;2</title>
<path fill="none" stroke="grey" stroke-width="2" d="M253.37,-503.91C264.5,-477.39 283.5,-425.34 283.5,-379 283.5,-379 283.5,-379 283.5,-305 283.5,-264.14 286.99,-247.1 260.5,-216 239.99,-191.92 206.46,-178.4 179.89,-171.05"/>
<polygon fill="grey" stroke="grey" stroke-width="2" points="180.98,-167.72 170.42,-168.67 179.26,-174.51 180.98,-167.72"/>
</g>
<!-- 8&#45;&gt;6 -->
<g id="edge12" class="edge">
<title>8&#45;&gt;6</title>
<path fill="none" stroke="grey" stroke-width="2" d="M205.22,-503.59C185.49,-494.82 161.47,-484.14 140.29,-474.72"/>
<polygon fill="grey" stroke="grey" stroke-width="2" points="141.86,-471.59 131.3,-470.72 139.01,-477.98 141.86,-471.59"/>
</g>
<!-- 8&#45;&gt;10 -->
<g id="edge15" class="edge">
<title>8&#45;&gt;10</title>
<path fill="none" stroke="grey" stroke-width="2" d="M235.41,-503.77C231.36,-496.67 226.6,-488.3 222.07,-480.36"/>
<polygon fill="grey" stroke="grey" stroke-width="2" points="225.22,-478.8 217.23,-471.85 219.13,-482.27 225.22,-478.8"/>
</g>
<!-- 9 -->
<g id="node10" class="node">
<title>9</title>
<path fill="none" stroke="#56d8c9" stroke-width="2" d="M276,-613C276,-613 215,-613 215,-613 209,-613 203,-607 203,-601 203,-601 203,-588.5 203,-588.5 203,-582.5 209,-576.5 215,-576.5 215,-576.5 276,-576.5 276,-576.5 282,-576.5 288,-582.5 288,-588.5 288,-588.5 288,-601 288,-601 288,-607 282,-613 276,-613"/>
<text xml:space="preserve" text-anchor="middle" x="245.5" y="-599.5" font-family="sans" font-size="10.00">download_ckpt</text>
<text xml:space="preserve" text-anchor="middle" x="245.5" y="-585.25" font-family="sans" font-size="10.00">version: v1.1.0</text>
</g>
<!-- 9&#45;&gt;8 -->
<g id="edge13" class="edge">
<title>9&#45;&gt;8</title>
<path fill="none" stroke="grey" stroke-width="2" d="M245.5,-575.66C245.5,-569.14 245.5,-561.58 245.5,-554.27"/>
<polygon fill="grey" stroke="grey" stroke-width="2" points="249,-554.31 245.5,-544.31 242,-554.31 249,-554.31"/>
</g>
<!-- 10&#45;&gt;5 -->
<g id="edge10" class="edge">
<title>10&#45;&gt;5</title>
<path fill="none" stroke="grey" stroke-width="2" d="M185.16,-431.16C176.33,-423.31 165.83,-413.97 156.16,-405.38"/>
<polygon fill="grey" stroke="grey" stroke-width="2" points="158.56,-402.83 148.76,-398.8 153.91,-408.06 158.56,-402.83"/>
</g>
</g>
</svg>
