<?xml version="1.0" encoding="UTF-8" standalone="no"?>
<!DOCTYPE svg PUBLIC "-//W3C//DTD SVG 1.1//EN"
 "http://www.w3.org/Graphics/SVG/1.1/DTD/svg11.dtd">
<!-- Generated by graphviz version 14.0.5 (0)
 -->
<!-- Title: snakemake_dag Pages: 1 -->
<svg width="306pt" height="620pt"
 viewBox="0.00 0.00 306.00 620.00" xmlns="http://www.w3.org/2000/svg" xmlns:xlink="http://www.w3.org/1999/xlink">
<g id="graph0" class="graph" transform="scale(1 1) rotate(0) translate(4 616)">
<title>snakemake_dag</title>
<polygon fill="white" stroke="none" points="-4,4 -4,-616 301.75,-616 301.75,4 -4,4"/>
<!-- 0 -->
<g id="node1" class="node">
<title>0</title>
<path fill="none" stroke="#9fd856" stroke-width="2" d="M116.5,-36C116.5,-36 86.5,-36 86.5,-36 80.5,-36 74.5,-30 74.5,-24 74.5,-24 74.5,-12 74.5,-12 74.5,-6 80.5,0 86.5,0 86.5,0 116.5,0 116.5,0 122.5,0 128.5,-6 128.5,-12 128.5,-12 128.5,-24 128.5,-24 128.5,-30 122.5,-36 116.5,-36"/>
<text xml:space="preserve" text-anchor="middle" x="101.5" y="-15.62" font-family="sans" font-size="10.00">all</text>
</g>
<!-- 1 -->
<g id="node2" class="node">
<title>1</title>
<path fill="none" stroke="#5682d8" stroke-width="2" d="M130.5,-108C130.5,-108 72.5,-108 72.5,-108 66.5,-108 60.5,-102 60.5,-96 60.5,-96 60.5,-84 60.5,-84 60.5,-78 66.5,-72 72.5,-72 72.5,-72 130.5,-72 130.5,-72 136.5,-72 142.5,-78 142.5,-84 142.5,-84 142.5,-96 142.5,-96 142.5,-102 136.5,-108 130.5,-108"/>
<text xml:space="preserve" text-anchor="middle" x="101.5" y="-87.62" font-family="sans" font-size="10.00">plot_neb_path</text>
</g>
<!-- 1&#45;&gt;0 -->
<g id="edge1" class="edge">
<title>1&#45;&gt;0</title>
<path fill="none" stroke="grey" stroke-width="2" d="M101.5,-71.34C101.5,-64.75 101.5,-57.08 101.5,-49.67"/>
<polygon fill="grey" stroke="grey" stroke-width="2" points="105,-49.93 101.5,-39.93 98,-49.93 105,-49.93"/>
</g>
<!-- 2 -->
<g id="node3" class="node">
<title>2</title>
<path fill="none" stroke="#56d89a" stroke-width="2" d="M116.5,-180C116.5,-180 86.5,-180 86.5,-180 80.5,-180 74.5,-174 74.5,-168 74.5,-168 74.5,-156 74.5,-156 74.5,-150 80.5,-144 86.5,-144 86.5,-144 116.5,-144 116.5,-144 122.5,-144 128.5,-150 128.5,-156 128.5,-156 128.5,-168 128.5,-168 128.5,-174 122.5,-180 116.5,-180"/>
<text xml:space="preserve" text-anchor="middle" x="101.5" y="-159.62" font-family="sans" font-size="10.00">do_neb</text>
</g>
<!-- 2&#45;&gt;1 -->
<g id="edge2" class="edge">
<title>2&#45;&gt;1</title>
<path fill="none" stroke="grey" stroke-width="2" d="M101.5,-143.34C101.5,-136.75 101.5,-129.08 101.5,-121.67"/>
<polygon fill="grey" stroke="grey" stroke-width="2" points="105,-121.93 101.5,-111.93 98,-121.93 105,-121.93"/>
</g>
<!-- 3 -->
<g id="node4" class="node">
<title>3</title>
<path fill="none" stroke="#d85656" stroke-width="2" d="M201.12,-252C201.12,-252 95.88,-252 95.88,-252 89.88,-252 83.88,-246 83.88,-240 83.88,-240 83.88,-228 83.88,-228 83.88,-222 89.88,-216 95.88,-216 95.88,-216 201.12,-216 201.12,-216 207.12,-216 213.12,-222 213.12,-228 213.12,-228 213.12,-240 213.12,-240 213.12,-246 207.12,-252 201.12,-252"/>
<text xml:space="preserve" text-anchor="middle" x="148.5" y="-231.62" font-family="sans" font-size="10.00">__ase_idpp_collect_paths</text>
</g>
<!-- 3&#45;&gt;2 -->
<g id="edge3" class="edge">
<title>3&#45;&gt;2</title>
<path fill="none" stroke="grey" stroke-width="2" d="M136.64,-215.34C131.78,-208.1 126.03,-199.53 120.6,-191.45"/>
<polygon fill="grey" stroke="grey" stroke-width="2" points="123.69,-189.77 115.21,-183.41 117.88,-193.67 123.69,-189.77"/>
</g>
<!-- 4 -->
<g id="node5" class="node">
<title>4</title>
<path fill="none" stroke="#d88556" stroke-width="2" d="M205,-324C205,-324 54,-324 54,-324 48,-324 42,-318 42,-312 42,-312 42,-300 42,-300 42,-294 48,-288 54,-288 54,-288 205,-288 205,-288 211,-288 217,-294 217,-300 217,-300 217,-312 217,-312 217,-318 211,-324 205,-324"/>
<text xml:space="preserve" text-anchor="middle" x="129.5" y="-303.62" font-family="sans" font-size="10.00">__ase_idpp_generate_idpp_images</text>
</g>
<!-- 4&#45;&gt;2 -->
<g id="edge6" class="edge">
<title>4&#45;&gt;2</title>
<path fill="none" stroke="grey" stroke-width="2" d="M102.97,-287.01C91.97,-277.94 80.41,-265.91 74.5,-252 66.24,-232.56 73.47,-209.75 82.52,-192.09"/>
<polygon fill="grey" stroke="grey" stroke-width="2" points="85.54,-193.85 87.41,-183.42 79.45,-190.41 85.54,-193.85"/>
</g>
<!-- 4&#45;&gt;3 -->
<g id="edge7" class="edge">
<title>4&#45;&gt;3</title>
<path fill="none" stroke="grey" stroke-width="2" d="M134.29,-287.34C136.1,-280.67 138.22,-272.89 140.25,-265.39"/>
<polygon fill="grey" stroke="grey" stroke-width="2" points="143.61,-266.39 142.85,-255.82 136.85,-264.56 143.61,-266.39"/>
</g>
<!-- 5 -->
<g id="node6" class="node">
<title>5</title>
<path fill="none" stroke="#d8b456" stroke-width="2" d="M185.25,-396C185.25,-396 29.75,-396 29.75,-396 23.75,-396 17.75,-390 17.75,-384 17.75,-384 17.75,-372 17.75,-372 17.75,-366 23.75,-360 29.75,-360 29.75,-360 185.25,-360 185.25,-360 191.25,-360 197.25,-366 197.25,-372 197.25,-372 197.25,-384 197.25,-384 197.25,-390 191.25,-396 185.25,-396"/>
<text xml:space="preserve" text-anchor="middle" x="107.5" y="-375.62" font-family="sans" font-size="10.00">__ira_align_prepare_endpoints_post</text>
</g>
<!-- 5&#45;&gt;2 -->
<g id="edge4" class="edge">
<title>5&#45;&gt;2</title>
<path fill="none" stroke="grey" stroke-width="2" d="M68.43,-359.19C54.47,-350.67 40.27,-339.01 32.5,-324 8.8,-278.24 46.72,-222.51 75.06,-190.06"/>
<polygon fill="grey" stroke="grey" stroke-width="2" points="77.31,-192.78 81.43,-183.02 72.13,-188.08 77.31,-192.78"/>
</g>
<!-- 5&#45;&gt;4 -->
<g id="edge8" class="edge">
<title>5&#45;&gt;4</title>
<path fill="none" stroke="grey" stroke-width="2" d="M113.05,-359.34C115.17,-352.59 117.65,-344.69 120.04,-337.11"/>
<polygon fill="grey" stroke="grey" stroke-width="2" points="123.31,-338.38 122.97,-327.79 116.63,-336.28 123.31,-338.38"/>
</g>
<!-- 6 -->
<g id="node7" class="node">
<title>6</title>
<path fill="none" stroke="#56d86b" stroke-width="2" d="M141,-468C141,-468 74,-468 74,-468 68,-468 62,-462 62,-456 62,-456 62,-444 62,-444 62,-438 68,-432 74,-432 74,-432 141,-432 141,-432 147,-432 153,-438 153,-444 153,-444 153,-456 153,-456 153,-462 147,-468 141,-468"/>
<text xml:space="preserve" text-anchor="middle" x="107.5" y="-447.62" font-family="sans" font-size="10.00">do_minimization</text>
</g>
<!-- 6&#45;&gt;5 -->
<g id="edge9" class="edge">
<title>6&#45;&gt;5</title>
<path fill="none" stroke="grey" stroke-width="2" d="M107.5,-431.34C107.5,-424.75 107.5,-417.08 107.5,-409.67"/>
<polygon fill="grey" stroke="grey" stroke-width="2" points="111,-409.93 107.5,-399.93 104,-409.93 111,-409.93"/>
</g>
<!-- 7 -->
<g id="node8" class="node">
<title>7</title>
<path fill="none" stroke="#ced856" stroke-width="2" d="M163,-540C163,-540 12,-540 12,-540 6,-540 0,-534 0,-528 0,-528 0,-516 0,-516 0,-510 6,-504 12,-504 12,-504 163,-504 163,-504 169,-504 175,-510 175,-516 175,-516 175,-528 175,-528 175,-534 169,-540 163,-540"/>
<text xml:space="preserve" text-anchor="middle" x="87.5" y="-519.62" font-family="sans" font-size="10.00">__ira_align_prepare_endpoints_pre</text>
</g>
<!-- 7&#45;&gt;6 -->
<g id="edge10" class="edge">
<title>7&#45;&gt;6</title>
<path fill="none" stroke="grey" stroke-width="2" d="M92.55,-503.34C94.45,-496.67 96.68,-488.89 98.82,-481.39"/>
<polygon fill="grey" stroke="grey" stroke-width="2" points="102.17,-482.39 101.55,-471.81 95.44,-480.47 102.17,-482.39"/>
</g>
<!-- 8 -->
<g id="node9" class="node">
<title>8</title>
<path fill="none" stroke="#70d856" stroke-width="2" d="M285.75,-540C285.75,-540 205.25,-540 205.25,-540 199.25,-540 193.25,-534 193.25,-528 193.25,-528 193.25,-516 193.25,-516 193.25,-510 199.25,-504 205.25,-504 205.25,-504 285.75,-504 285.75,-504 291.75,-504 297.75,-510 297.75,-516 297.75,-516 297.75,-528 297.75,-528 297.75,-534 291.75,-540 285.75,-540"/>
<text xml:space="preserve" text-anchor="middle" x="245.5" y="-519.62" font-family="sans" font-size="10.00">convert_ckpt_to_pt</text>
</g>
<!-- 8&#45;&gt;2 -->
<g id="edge5" class="edge">
<title>8&#45;&gt;2</title>
<path fill="none" stroke="grey" stroke-width="2" d="M245.5,-503.07C245.5,-476.13 245.5,-423.62 245.5,-379 245.5,-379 245.5,-379 245.5,-305 245.5,-264.14 248.99,-247.1 222.5,-216 201.99,-191.92 168.46,-178.4 141.89,-171.05"/>
<polygon fill="grey" stroke="grey" stroke-width="2" points="142.98,-167.72 132.42,-168.67 141.26,-174.51 142.98,-167.72"/>
</g>
<!-- 8&#45;&gt;6 -->
<g id="edge11" class="edge">
<title>8&#45;&gt;6</title>
<path fill="none" stroke="grey" stroke-width="2" d="M210.32,-503.15C193.21,-494.47 172.41,-483.92 154,-474.59"/>
<polygon fill="grey" stroke="grey" stroke-width="2" points="155.82,-471.58 145.32,-470.18 152.65,-477.83 155.82,-471.58"/>
</g>
<!-- 9 -->
<g id="node10" class="node">
<title>9</title>
<path fill="none" stroke="#56d8c9" stroke-width="2" d="M276,-612C276,-612 215,-612 215,-612 209,-612 203,-606 203,-600 203,-600 203,-588 203,-588 203,-582 209,-576 215,-576 215,-576 276,-576 276,-576 282,-576 288,-582 288,-588 288,-588 288,-600 288,-600 288,-606 282,-612 276,-612"/>
<text xml:space="preserve" text-anchor="middle" x="245.5" y="-591.62" font-family="sans" font-size="10.00">download_ckpt</text>
</g>
<!-- 9&#45;&gt;8 -->
<g id="edge12" class="edge">
<title>9&#45;&gt;8</title>
<path fill="none" stroke="grey" stroke-width="2" d="M245.5,-575.34C245.5,-568.75 245.5,-561.08 245.5,-553.67"/>
<polygon fill="grey" stroke="grey" stroke-width="2" points="249,-553.93 245.5,-543.93 242,-553.93 249,-553.93"/>
</g>
</g>
</svg>
